# xmcd
#
# Track frame offsets:
#	150
#	19988
#	51010
#	103280
#	128818
#	180550
#	294313
# Disc length: 4141 seconds
# Revision: 1
# Processed by: cddbd v1.5.1PL2 Copyright (c) Steve Scherf et al.
#
# Submitted via: libkcddb 0.21
#
DISCID=5f102b07
DTITLE=Ravi Shankar - Inside de Kremlin
DYEAR=1986
DGENRE=Unknown
TTITLE0=Prarambh
TTITLE1=Shanti Mantra
TTITLE2=Três ragas em ré menor
TTITLE3=Tarana
TTITLE4=Sandhya raga
TTITLE5=Bagu-rang
TTITLE6=Shanti mantra
EXTD=
EXTT0=
EXTT1=
EXTT2=
EXTT3=
EXTT4=
EXTT5=
EXTT6=
PLAYORDER=
